<mxfile host="app.diagrams.net" modified="2022-11-30T06:40:41.311Z" agent="5.0 (Macintosh; Intel Mac OS X 10_15_7) AppleWebKit/537.36 (KHTML, like Gecko) Chrome/107.0.0.0 Safari/537.36" etag="mesInecBw4UXmS_GH4hz" version="20.5.1" type="github">
  <diagram name="Page-1" id="64c3da0e-402f-94eb-ee01-a36477274f13">
    <mxGraphModel dx="1677" dy="1633" grid="1" gridSize="10" guides="1" tooltips="1" connect="1" arrows="1" fold="1" page="1" pageScale="1" pageWidth="1169" pageHeight="826" background="none" math="0" shadow="0">
      <root>
        <mxCell id="0" />
        <mxCell id="1" parent="0" />
        <mxCell id="2" value="WorkFlowRule{&#xa;id int,&#xa;type int,&#xa;promoter_id int,&#xa;}" style="whiteSpace=wrap;rounded=1;shadow=1;fillColor=#10739E;strokeColor=none;fontColor=#FFFFFF;fontStyle=1;fontSize=24" parent="1" vertex="1">
          <mxGeometry x="775" y="-150" width="340" height="200" as="geometry" />
        </mxCell>
        <mxCell id="3" value="Promoter&#xa;&#xa;Â SimpleNode{&#xa;account_id,&#xa;prev_node_id&#xa;}" style="whiteSpace=wrap;rounded=1;fillColor=#F2931E;strokeColor=none;shadow=1;fontColor=#FFFFFF;fontStyle=1;fontSize=14" parent="1" vertex="1">
          <mxGeometry x="57" y="110" width="176" height="120" as="geometry" />
        </mxCell>
        <mxCell id="4" value="Principal ...&#xa;&#xa;WithNode{&#xa;account_id,&#xa;prev_node_id&#xa;}" style="whiteSpace=wrap;rounded=1;fillColor=#F2931E;strokeColor=none;shadow=1;fontColor=#FFFFFF;fontStyle=1;fontSize=14" parent="1" vertex="1">
          <mxGeometry x="530" y="110" width="140" height="120" as="geometry" />
        </mxCell>
        <mxCell id="6" value="Principal ...&#xa;&#xa;OrNode{&#xa;account_id,&#xa;prev_node_id&#xa;}" style="whiteSpace=wrap;rounded=1;fillColor=#F2931E;strokeColor=none;shadow=1;fontColor=#FFFFFF;fontStyle=1;fontSize=14" parent="1" vertex="1">
          <mxGeometry x="1310" y="105" width="140" height="120" as="geometry" />
        </mxCell>
        <mxCell id="7" value="Terminator&#xa;&#xa;SimpleNode{&#xa;account_id int,&#xa;rules []rule&#xa;}" style="whiteSpace=wrap;rounded=1;fillColor=#F2931E;strokeColor=none;shadow=1;fontColor=#FFFFFF;fontStyle=1;fontSize=14" parent="1" vertex="1">
          <mxGeometry x="1670" y="110" width="140" height="110" as="geometry" />
        </mxCell>
        <mxCell id="116" value="" style="edgeStyle=elbowEdgeStyle;elbow=vertical;rounded=0;fontColor=#000000;endArrow=none;endFill=0;strokeWidth=8;strokeColor=#23445D;entryX=0.5;entryY=0;entryDx=0;entryDy=0;" parent="1" source="4" target="l-bemKt5AdIYeNtcFZFb-242" edge="1">
          <mxGeometry width="100" height="100" relative="1" as="geometry">
            <mxPoint x="240" y="239.99999999999977" as="sourcePoint" />
            <mxPoint x="480" y="303" as="targetPoint" />
          </mxGeometry>
        </mxCell>
        <mxCell id="117" value="" style="edgeStyle=elbowEdgeStyle;elbow=vertical;rounded=0;fontColor=#000000;endArrow=none;endFill=0;strokeWidth=8;strokeColor=#23445D;entryX=0.5;entryY=0;entryDx=0;entryDy=0;" parent="1" source="4" target="l-bemKt5AdIYeNtcFZFb-244" edge="1">
          <mxGeometry width="100" height="100" relative="1" as="geometry">
            <mxPoint x="240" y="239.99999999999977" as="sourcePoint" />
            <mxPoint x="699.9999999999998" y="300" as="targetPoint" />
          </mxGeometry>
        </mxCell>
        <mxCell id="229" value="" style="edgeStyle=elbowEdgeStyle;elbow=vertical;rounded=0;fontColor=#000000;endArrow=none;endFill=0;strokeWidth=8;strokeColor=#23445D;" parent="1" source="2" target="3" edge="1">
          <mxGeometry width="100" height="100" relative="1" as="geometry">
            <mxPoint x="540" y="140" as="sourcePoint" />
            <mxPoint x="640" y="40" as="targetPoint" />
          </mxGeometry>
        </mxCell>
        <mxCell id="230" value="" style="edgeStyle=elbowEdgeStyle;elbow=vertical;rounded=0;fontColor=#000000;endArrow=none;endFill=0;strokeWidth=8;strokeColor=#23445D;" parent="1" source="2" target="4" edge="1">
          <mxGeometry width="100" height="100" relative="1" as="geometry">
            <mxPoint x="550" y="150" as="sourcePoint" />
            <mxPoint x="650" y="50" as="targetPoint" />
          </mxGeometry>
        </mxCell>
        <mxCell id="231" value="" style="edgeStyle=elbowEdgeStyle;elbow=vertical;rounded=0;fontColor=#000000;endArrow=none;endFill=0;strokeWidth=8;strokeColor=#23445D;" parent="1" source="2" target="6" edge="1">
          <mxGeometry width="100" height="100" relative="1" as="geometry">
            <mxPoint x="560" y="160" as="sourcePoint" />
            <mxPoint x="660" y="60" as="targetPoint" />
          </mxGeometry>
        </mxCell>
        <mxCell id="232" value="" style="edgeStyle=elbowEdgeStyle;elbow=vertical;rounded=0;fontColor=#000000;endArrow=none;endFill=0;strokeWidth=8;strokeColor=#23445D;" parent="1" source="2" target="7" edge="1">
          <mxGeometry width="100" height="100" relative="1" as="geometry">
            <mxPoint x="570" y="170" as="sourcePoint" />
            <mxPoint x="670" y="70" as="targetPoint" />
          </mxGeometry>
        </mxCell>
        <mxCell id="l-bemKt5AdIYeNtcFZFb-242" value="Principal ...&#xa;&#xa;WithNode{&#xa;account_id int,&#xa;rules []rule,&#xa;childs []WithNode&#xa;}" style="whiteSpace=wrap;rounded=1;fillColor=#397A40;strokeColor=none;shadow=1;fontColor=#FFFFFF;fontStyle=1;fontSize=14" parent="1" vertex="1">
          <mxGeometry x="340" y="300" width="140" height="120" as="geometry" />
        </mxCell>
        <mxCell id="l-bemKt5AdIYeNtcFZFb-244" value="Principal ...&#xa;&#xa;OrNode{&#xa;account_id int,&#xa;rules []rule&#xa;childs []OrNode&#xa;}" style="whiteSpace=wrap;rounded=1;fillColor=#397A40;strokeColor=none;shadow=1;fontColor=#FFFFFF;fontStyle=1;fontSize=14" parent="1" vertex="1">
          <mxGeometry x="730" y="300" width="140" height="120" as="geometry" />
        </mxCell>
        <mxCell id="l-bemKt5AdIYeNtcFZFb-249" value="Principal&#xa;&#xa;SimpleNode{&#xa;account_id int,&#xa;rules []rule&#xa;}" style="whiteSpace=wrap;rounded=1;fillColor=#12AAB5;strokeColor=none;shadow=1;fontColor=#FFFFFF;" parent="1" vertex="1">
          <mxGeometry x="440" y="480" width="120" height="110" as="geometry" />
        </mxCell>
        <mxCell id="l-bemKt5AdIYeNtcFZFb-252" value="Principal&#xa;&#xa;SimpleNode{&#xa;account_id int,&#xa;rules []rule&#xa;}" style="whiteSpace=wrap;rounded=1;fillColor=#12AAB5;strokeColor=none;shadow=1;fontColor=#FFFFFF;" parent="1" vertex="1">
          <mxGeometry x="260" y="480" width="120" height="110" as="geometry" />
        </mxCell>
        <mxCell id="l-bemKt5AdIYeNtcFZFb-256" value="" style="edgeStyle=elbowEdgeStyle;elbow=vertical;rounded=0;fontColor=#000000;endArrow=none;endFill=0;strokeWidth=8;strokeColor=#23445D;entryX=0.5;entryY=0;entryDx=0;entryDy=0;exitX=0.5;exitY=1;exitDx=0;exitDy=0;" parent="1" source="l-bemKt5AdIYeNtcFZFb-242" target="l-bemKt5AdIYeNtcFZFb-252" edge="1">
          <mxGeometry width="100" height="100" relative="1" as="geometry">
            <mxPoint x="610" y="240" as="sourcePoint" />
            <mxPoint x="420" y="310" as="targetPoint" />
          </mxGeometry>
        </mxCell>
        <mxCell id="l-bemKt5AdIYeNtcFZFb-257" value="" style="edgeStyle=elbowEdgeStyle;elbow=vertical;rounded=0;fontColor=#000000;endArrow=none;endFill=0;strokeWidth=8;strokeColor=#23445D;entryX=0.5;entryY=0;entryDx=0;entryDy=0;" parent="1" target="l-bemKt5AdIYeNtcFZFb-249" edge="1">
          <mxGeometry width="100" height="100" relative="1" as="geometry">
            <mxPoint x="410" y="450" as="sourcePoint" />
            <mxPoint x="810" y="310" as="targetPoint" />
            <Array as="points">
              <mxPoint x="460" y="450" />
            </Array>
          </mxGeometry>
        </mxCell>
        <mxCell id="l-bemKt5AdIYeNtcFZFb-258" value="Principal&#xa;&#xa;SimpleNode{&#xa;account_id int,&#xa;rules []rule&#xa;}" style="whiteSpace=wrap;rounded=1;fillColor=#12AAB5;strokeColor=none;shadow=1;fontColor=#FFFFFF;" parent="1" vertex="1">
          <mxGeometry x="830" y="480" width="120" height="110" as="geometry" />
        </mxCell>
        <mxCell id="l-bemKt5AdIYeNtcFZFb-259" value="Principal&#xa;&#xa;SimpleNode{&#xa;account_id int,&#xa;rules []rule&#xa;}" style="whiteSpace=wrap;rounded=1;fillColor=#12AAB5;strokeColor=none;shadow=1;fontColor=#FFFFFF;" parent="1" vertex="1">
          <mxGeometry x="650" y="480" width="120" height="110" as="geometry" />
        </mxCell>
        <mxCell id="l-bemKt5AdIYeNtcFZFb-260" value="" style="edgeStyle=elbowEdgeStyle;elbow=vertical;rounded=0;fontColor=#000000;endArrow=none;endFill=0;strokeWidth=8;strokeColor=#23445D;entryX=0.5;entryY=0;entryDx=0;entryDy=0;exitX=0.5;exitY=1;exitDx=0;exitDy=0;" parent="1" target="l-bemKt5AdIYeNtcFZFb-259" edge="1">
          <mxGeometry width="100" height="100" relative="1" as="geometry">
            <mxPoint x="800" y="420" as="sourcePoint" />
            <mxPoint x="810" y="310" as="targetPoint" />
          </mxGeometry>
        </mxCell>
        <mxCell id="l-bemKt5AdIYeNtcFZFb-261" value="" style="edgeStyle=elbowEdgeStyle;elbow=vertical;rounded=0;fontColor=#000000;endArrow=none;endFill=0;strokeWidth=8;strokeColor=#23445D;entryX=0.5;entryY=0;entryDx=0;entryDy=0;" parent="1" target="l-bemKt5AdIYeNtcFZFb-258" edge="1">
          <mxGeometry width="100" height="100" relative="1" as="geometry">
            <mxPoint x="800" y="450" as="sourcePoint" />
            <mxPoint x="1200" y="310" as="targetPoint" />
            <Array as="points">
              <mxPoint x="850" y="450" />
            </Array>
          </mxGeometry>
        </mxCell>
        <mxCell id="l-bemKt5AdIYeNtcFZFb-262" value="" style="edgeStyle=elbowEdgeStyle;elbow=vertical;rounded=0;fontColor=#000000;endArrow=none;endFill=0;strokeWidth=8;strokeColor=#23445D;entryX=0.5;entryY=0;entryDx=0;entryDy=0;" parent="1" target="l-bemKt5AdIYeNtcFZFb-264" edge="1">
          <mxGeometry width="100" height="100" relative="1" as="geometry">
            <mxPoint x="1375" y="225" as="sourcePoint" />
            <mxPoint x="1255" y="298" as="targetPoint" />
          </mxGeometry>
        </mxCell>
        <mxCell id="l-bemKt5AdIYeNtcFZFb-263" value="" style="edgeStyle=elbowEdgeStyle;elbow=vertical;rounded=0;fontColor=#000000;endArrow=none;endFill=0;strokeWidth=8;strokeColor=#23445D;entryX=0.5;entryY=0;entryDx=0;entryDy=0;" parent="1" target="l-bemKt5AdIYeNtcFZFb-265" edge="1">
          <mxGeometry width="100" height="100" relative="1" as="geometry">
            <mxPoint x="1375" y="225" as="sourcePoint" />
            <mxPoint x="1474.9999999999998" y="295" as="targetPoint" />
          </mxGeometry>
        </mxCell>
        <mxCell id="l-bemKt5AdIYeNtcFZFb-264" value="Principal ...&#xa;&#xa;WithNode{&#xa;account_id int,&#xa;rules []rule,&#xa;childs []WithNode&#xa;}" style="whiteSpace=wrap;rounded=1;fillColor=#397A40;strokeColor=none;shadow=1;fontColor=#FFFFFF;fontStyle=1;fontSize=14" parent="1" vertex="1">
          <mxGeometry x="1115" y="295" width="140" height="120" as="geometry" />
        </mxCell>
        <mxCell id="l-bemKt5AdIYeNtcFZFb-265" value="Principal ...&#xa;&#xa;OrNode{&#xa;account_id int,&#xa;rules []rule&#xa;childs []OrNode&#xa;}" style="whiteSpace=wrap;rounded=1;fillColor=#397A40;strokeColor=none;shadow=1;fontColor=#FFFFFF;fontStyle=1;fontSize=14" parent="1" vertex="1">
          <mxGeometry x="1505" y="295" width="140" height="120" as="geometry" />
        </mxCell>
        <mxCell id="l-bemKt5AdIYeNtcFZFb-266" value="Principal&#xa;&#xa;SimpleNode{&#xa;account_id int,&#xa;rules []rule&#xa;}" style="whiteSpace=wrap;rounded=1;fillColor=#12AAB5;strokeColor=none;shadow=1;fontColor=#FFFFFF;" parent="1" vertex="1">
          <mxGeometry x="1215" y="475" width="120" height="110" as="geometry" />
        </mxCell>
        <mxCell id="l-bemKt5AdIYeNtcFZFb-267" value="Principal&#xa;&#xa;SimpleNode{&#xa;account_id int,&#xa;rules []rule&#xa;}" style="whiteSpace=wrap;rounded=1;fillColor=#12AAB5;strokeColor=none;shadow=1;fontColor=#FFFFFF;" parent="1" vertex="1">
          <mxGeometry x="1035" y="475" width="120" height="110" as="geometry" />
        </mxCell>
        <mxCell id="l-bemKt5AdIYeNtcFZFb-268" value="" style="edgeStyle=elbowEdgeStyle;elbow=vertical;rounded=0;fontColor=#000000;endArrow=none;endFill=0;strokeWidth=8;strokeColor=#23445D;entryX=0.5;entryY=0;entryDx=0;entryDy=0;exitX=0.5;exitY=1;exitDx=0;exitDy=0;" parent="1" source="l-bemKt5AdIYeNtcFZFb-264" target="l-bemKt5AdIYeNtcFZFb-267" edge="1">
          <mxGeometry width="100" height="100" relative="1" as="geometry">
            <mxPoint x="1385" y="235" as="sourcePoint" />
            <mxPoint x="1195" y="305" as="targetPoint" />
          </mxGeometry>
        </mxCell>
        <mxCell id="l-bemKt5AdIYeNtcFZFb-269" value="" style="edgeStyle=elbowEdgeStyle;elbow=vertical;rounded=0;fontColor=#000000;endArrow=none;endFill=0;strokeWidth=8;strokeColor=#23445D;entryX=0.5;entryY=0;entryDx=0;entryDy=0;" parent="1" target="l-bemKt5AdIYeNtcFZFb-266" edge="1">
          <mxGeometry width="100" height="100" relative="1" as="geometry">
            <mxPoint x="1185" y="445" as="sourcePoint" />
            <mxPoint x="1585" y="305" as="targetPoint" />
            <Array as="points">
              <mxPoint x="1235" y="445" />
            </Array>
          </mxGeometry>
        </mxCell>
        <mxCell id="l-bemKt5AdIYeNtcFZFb-270" value="Principal&#xa;&#xa;SimpleNode{&#xa;account_id int,&#xa;rules []rule&#xa;}" style="whiteSpace=wrap;rounded=1;fillColor=#12AAB5;strokeColor=none;shadow=1;fontColor=#FFFFFF;" parent="1" vertex="1">
          <mxGeometry x="1605" y="475" width="120" height="110" as="geometry" />
        </mxCell>
        <mxCell id="l-bemKt5AdIYeNtcFZFb-271" value="Principal&#xa;&#xa;SimpleNode{&#xa;account_id int,&#xa;rules []rule&#xa;}" style="whiteSpace=wrap;rounded=1;fillColor=#12AAB5;strokeColor=none;shadow=1;fontColor=#FFFFFF;" parent="1" vertex="1">
          <mxGeometry x="1425" y="475" width="120" height="110" as="geometry" />
        </mxCell>
        <mxCell id="l-bemKt5AdIYeNtcFZFb-272" value="" style="edgeStyle=elbowEdgeStyle;elbow=vertical;rounded=0;fontColor=#000000;endArrow=none;endFill=0;strokeWidth=8;strokeColor=#23445D;entryX=0.5;entryY=0;entryDx=0;entryDy=0;exitX=0.5;exitY=1;exitDx=0;exitDy=0;" parent="1" target="l-bemKt5AdIYeNtcFZFb-271" edge="1">
          <mxGeometry width="100" height="100" relative="1" as="geometry">
            <mxPoint x="1575" y="415" as="sourcePoint" />
            <mxPoint x="1585" y="305" as="targetPoint" />
          </mxGeometry>
        </mxCell>
        <mxCell id="l-bemKt5AdIYeNtcFZFb-273" value="" style="edgeStyle=elbowEdgeStyle;elbow=vertical;rounded=0;fontColor=#000000;endArrow=none;endFill=0;strokeWidth=8;strokeColor=#23445D;entryX=0.5;entryY=0;entryDx=0;entryDy=0;" parent="1" target="l-bemKt5AdIYeNtcFZFb-270" edge="1">
          <mxGeometry width="100" height="100" relative="1" as="geometry">
            <mxPoint x="1575" y="445" as="sourcePoint" />
            <mxPoint x="1975" y="305" as="targetPoint" />
            <Array as="points">
              <mxPoint x="1625" y="445" />
            </Array>
          </mxGeometry>
        </mxCell>
      </root>
    </mxGraphModel>
  </diagram>
</mxfile>
